<?xml version="1.0"?>
<svg width="640" height="480" xmlns="http://www.w3.org/2000/svg" xmlns:svg="http://www.w3.org/2000/svg">
 <!-- Created with SVG-edit - http://svg-edit.googlecode.com/ -->
 <g>
  <title>Layer 1</title>
  <path id="svg_1" d="m160.941376,372.939972c-17.968781,-3.249481 -24.164902,-25.950378 -13.452011,-39.550568c14.217392,-21.033661 44.629807,-35.21286 68.458252,-21.941132c0.474838,-74.067963 0.20079,-148.139954 0.273438,-222.209671c59.41481,-11.986481 118.958176,-23.356476 178.39537,-35.238682c-0.128723,83.013752 -0.257446,166.0275 -0.386139,249.041248c-9.311493,25.108337 -39.399017,42.519501 -65.597626,34.733673c-15.597412,-4.668793 -19.336639,-24.801483 -10.651459,-37.137085c11.893677,-18.40094 34.03067,-31.034668 56.285431,-27.588074c6.350891,-0.642426 15.702972,9.639648 13.018707,-1.992004c0,-58.18811 0,-116.376282 0,-174.564354c-54.540344,10.979256 -109.188354,21.437012 -163.753815,32.297462c-0.186234,67.713333 0.463562,135.436996 -0.486237,203.141953c-1.73613,20.565277 -21.476303,34.595825 -39.903442,40.07782c-7.279678,1.227692 -14.859344,1.989349 -22.20047,0.929352l0,0.000061zm142.273773,-276.066238c28.023193,-5.514771 56.059296,-10.963303 84.07019,-16.539162c3.564667,-14.201363 -12.388641,-4.978607 -20.190552,-4.631912c-47.84787,9.445267 -95.723053,18.750679 -143.563431,28.232651c-3.564728,14.201347 12.388794,4.978569 20.19072,4.631889c19.829132,-3.908005 39.660828,-7.802635 59.493073,-11.693466l0,0z" stroke-linecap="null" stroke-linejoin="null" stroke-dasharray="null" stroke-width="5" stroke="#000000" fill="#00ffff"/>
  <path id="svg_3" d="m45.709999,218.701706c-9.617176,-1.739258 -12.933529,-13.889023 -7.19981,-21.168015c7.609371,-11.257599 23.886452,-18.846619 36.639912,-11.743332c0.254135,-39.642365 0.107552,-79.286865 0.146355,-118.930153c31.799698,-6.415337 63.668205,-12.500736 95.480019,-18.860287c-0.068924,44.430256 -0.137802,88.860584 -0.206741,133.290867c-4.983688,13.438309 -21.086823,22.75708 -35.10878,18.590042c-8.348152,-2.499023 -10.349388,-13.274277 -5.700714,-19.876495c6.365479,-9.848434 18.213715,-16.610229 30.12471,-14.765518c3.399017,-0.343887 8.404495,5.159286 6.967941,-1.066193c0,-31.143204 0,-62.286369 0,-93.429565c-29.191025,5.876266 -58.439377,11.47345 -87.643852,17.286087c-0.099648,36.24128 0.248169,72.488007 -0.260056,108.724823c-0.929436,11.006821 -11.494598,18.516174 -21.357079,21.450302c-3.896091,0.657028 -7.953011,1.064636 -11.881905,0.497437l0,0zm76.147064,-147.755058c14.998329,-2.951591 30.00396,-5.867714 44.995827,-8.852009c1.907791,-7.600796 -6.630798,-2.664631 -10.806686,-2.479053c-25.608658,5.055237 -51.232231,10.03566 -76.837166,15.110527c-1.907784,7.600815 6.63076,2.664619 10.806496,2.479073c10.612785,-2.091614 21.227043,-4.176094 31.84153,-6.258537l0,0z" stroke-linecap="null" stroke-linejoin="null" stroke-dasharray="null" stroke-width="5" stroke="#000000" fill="#ffff00"/>
  <path stroke="#000000" id="svg_4" d="m383.838684,438.221893c-14.998657,-2.71225 -20.170776,-21.660767 -11.228638,-33.012909c11.867523,-17.557129 37.252594,-29.392639 57.14267,-18.314728c0.396393,-61.825104 0.167725,-123.653717 0.228241,-185.480301c49.593994,-10.005203 99.29541,-19.495865 148.908081,-29.414032c-0.107422,69.292297 -0.214905,138.584671 -0.322388,207.876846c-7.7724,20.958221 -32.886414,35.491394 -54.7547,28.992676c-13.01947,-3.897186 -16.140442,-20.702087 -8.890808,-30.998871c9.92749,-15.359375 28.405762,-25.904907 46.982056,-23.027863c5.300903,-0.536285 13.107544,8.046204 10.866821,-1.662842c0,-48.570099 0,-97.140198 0,-145.710327c-45.52533,9.16449 -91.140442,17.893692 -136.687073,26.958954c-0.155487,56.520935 0.387146,113.050446 -0.405579,169.564423c-1.449493,17.166016 -17.926605,28.877502 -33.3078,33.453308c-6.076508,1.024872 -12.403503,1.6604 -18.530884,0.775665l0,0zm118.756897,-230.434845c23.391174,-4.60321 46.79364,-9.151138 70.174438,-13.805374c2.975281,-11.853989 -10.341064,-4.15567 -16.853577,-3.866257c-39.938599,7.884003 -79.900574,15.651337 -119.833496,23.565994c-2.975342,11.854004 10.341064,4.155685 16.853577,3.866287c16.551514,-3.262039 33.105103,-6.512924 49.659058,-9.760651l0,0z" stroke-linecap="null" stroke-linejoin="null" stroke-dasharray="null" stroke-width="5" fill="#7fff00"/>
  <path stroke="#000000" id="svg_6" d="m411.330322,172.433731c-8.25177,-1.361557 -11.095612,-10.871796 -6.177795,-16.569901c6.530975,-8.812408 20.501801,-14.753021 31.444885,-9.192764c0.219788,-31.03186 0.094177,-62.064651 0.12442,-93.097649c27.292908,-5.021904 54.642944,-9.785168 81.942047,-14.763416c-0.060059,34.779545 -0.116577,69.559139 -0.176636,104.339214c-4.274719,10.519073 -18.097412,17.813553 -30.132294,14.551666c-7.163422,-1.955704 -8.87854,-10.390945 -4.893707,-15.558914c5.466217,-7.709595 15.633362,-13.00235 25.857513,-11.558395c2.915619,-0.269241 7.211029,4.038239 5.981964,-0.834656c0,-24.378494 0,-48.757278 0,-73.135754c-25.054504,4.599468 -50.15564,8.981091 -75.218048,13.531399c-0.085175,28.369347 0.212463,56.742706 -0.222626,85.108887c-0.798431,8.616058 -9.866547,14.494415 -18.32959,16.791443c-3.344574,0.514252 -6.827026,0.833099 -10.200134,0.38884l0,0zm65.351593,-115.661327c12.869049,-2.310322 25.751526,-4.593323 38.618805,-6.929348c1.632751,-5.949635 -5.692139,-2.086117 -9.278839,-1.940544c-21.977539,3.957108 -43.967346,7.855732 -65.939209,11.828709c-1.638397,5.949459 5.687714,2.085407 9.273285,1.940163c9.108551,-1.637398 18.214203,-3.269054 27.325958,-4.898979l0,0z" stroke-linecap="null" stroke-linejoin="null" stroke-dasharray="null" stroke-width="5" fill="#ff0000"/>
  <path id="svg_7" d="m217.952805,443.509705c-8.310547,-1.502838 -11.176331,-12.001892 -6.221619,-18.292053c6.575607,-9.728088 20.641159,-16.286011 31.661942,-10.147858c0.219604,-34.256409 0.092896,-68.514709 0.126465,-102.771973c27.479309,-5.543732 55.018158,-10.802368 82.507904,-16.297882c-0.05957,38.39386 -0.119171,76.78772 -0.17868,115.18158c-4.30658,11.61264 -18.221985,19.665283 -30.338898,16.064392c-7.213837,-2.159363 -8.943176,-11.470734 -4.926208,-17.176025c5.500641,-8.510376 15.739227,-14.353485 26.032013,-12.759399c2.937195,-0.29715 7.262695,4.458313 6.021179,-0.921356c0,-26.911987 0,-53.824005 0,-80.735992c-25.224945,5.077911 -50.499542,9.914612 -75.736359,14.937561c-0.08609,31.317413 0.214539,62.639648 -0.224701,93.953186c-0.803101,9.511505 -9.932831,16.00061 -18.455368,18.536041c-3.366867,0.56778 -6.872589,0.920013 -10.26767,0.429779l0,0zm65.801529,-127.680664c12.960663,-2.550568 25.927551,-5.070496 38.882568,-7.649323c1.64856,-6.568146 -5.729858,-2.302612 -9.338348,-2.142273c-22.129364,4.368439 -44.271729,8.67218 -66.39801,13.057587c-1.64856,6.568146 5.729828,2.302612 9.338379,2.142242c9.170959,-1.807434 18.343048,-3.608704 27.515411,-5.408234l0,0z" stroke-linecap="null" stroke-linejoin="null" stroke-dasharray="null" stroke-width="5" stroke="#000000" fill="#7f00ff"/>
 </g>
</svg>